<svg width="12" height="12" viewBox="0 0 12 12" fill="none" xmlns="http://www.w3.org/2000/svg">
<path d="M6 6C5.28824 6 4.67892 5.73073 4.17206 5.19219C3.6652 4.65365 3.41177 4.00625 3.41177 3.25C3.41177 2.49375 3.6652 1.84635 4.17206 1.30781C4.67892 0.769271 5.28824 0.5 6 0.5C6.71177 0.5 7.32108 0.769271 7.82794 1.30781C8.33481 1.84635 8.58824 2.49375 8.58824 3.25C8.58824 4.00625 8.33481 4.65365 7.82794 5.19219C7.32108 5.73073 6.71177 6 6 6ZM0.823532 11.5V9.575C0.823532 9.18542 0.917895 8.82734 1.10662 8.50078C1.29535 8.17422 1.54608 7.925 1.85883 7.75313C2.52745 7.39792 3.20687 7.13151 3.89706 6.95391C4.58726 6.7763 5.28824 6.6875 6 6.6875C6.71177 6.6875 7.41275 6.7763 8.10294 6.95391C8.79314 7.13151 9.47255 7.39792 10.1412 7.75313C10.4539 7.925 10.7047 8.17422 10.8934 8.50078C11.0821 8.82734 11.1765 9.18542 11.1765 9.575V11.5H0.823532ZM2.11765 10.125H9.88235V9.575C9.88235 9.44896 9.8527 9.33438 9.79338 9.23125C9.73407 9.12813 9.65588 9.04792 9.55883 8.99063C8.97647 8.68125 8.38873 8.44922 7.79559 8.29453C7.20245 8.13984 6.60392 8.0625 6 8.0625C5.39608 8.0625 4.79755 8.13984 4.20441 8.29453C3.61128 8.44922 3.02353 8.68125 2.44118 8.99063C2.34412 9.04792 2.26593 9.12813 2.20662 9.23125C2.14731 9.33438 2.11765 9.44896 2.11765 9.575V10.125ZM6 4.625C6.35588 4.625 6.66054 4.49036 6.91397 4.22109C7.1674 3.95182 7.29412 3.62812 7.29412 3.25C7.29412 2.87188 7.1674 2.54818 6.91397 2.27891C6.66054 2.00964 6.35588 1.875 6 1.875C5.64412 1.875 5.33946 2.00964 5.08603 2.27891C4.8326 2.54818 4.70588 2.87188 4.70588 3.25C4.70588 3.62812 4.8326 3.95182 5.08603 4.22109C5.33946 4.49036 5.64412 4.625 6 4.625Z" fill="#8A1D85"/>
</svg>
